<mxfile host="app.diagrams.net" modified="2022-12-12T05:37:36.884Z" agent="5.0 (Macintosh; Intel Mac OS X 10_15_7) AppleWebKit/605.1.15 (KHTML, like Gecko) Version/16.1 Safari/605.1.15" version="20.6.2" etag="N0Cjip3m1SOyfYRfW3IA" type="github">
  <diagram id="bRL4RxA3Wv5pYidRWnrJ" name="Page-1">
    <mxGraphModel dx="1577" dy="1075" grid="1" gridSize="10" guides="1" tooltips="1" connect="1" arrows="1" fold="1" page="1" pageScale="1" pageWidth="850" pageHeight="1100" math="0" shadow="0">
      <root>
        <mxCell id="0" />
        <mxCell id="1" parent="0" />
        <mxCell id="NgUzxSAu7S5avkzwtn3j-7" value="" style="edgeStyle=orthogonalEdgeStyle;rounded=0;orthogonalLoop=1;jettySize=auto;html=1;" edge="1" parent="1" source="NgUzxSAu7S5avkzwtn3j-2" target="NgUzxSAu7S5avkzwtn3j-5">
          <mxGeometry relative="1" as="geometry" />
        </mxCell>
        <mxCell id="NgUzxSAu7S5avkzwtn3j-2" value="start" style="ellipse;whiteSpace=wrap;html=1;" vertex="1" parent="1">
          <mxGeometry x="372.5" y="40" width="135" height="60" as="geometry" />
        </mxCell>
        <mxCell id="NgUzxSAu7S5avkzwtn3j-11" style="edgeStyle=orthogonalEdgeStyle;rounded=0;orthogonalLoop=1;jettySize=auto;html=1;exitX=0.5;exitY=1;exitDx=0;exitDy=0;" edge="1" parent="1" source="NgUzxSAu7S5avkzwtn3j-5">
          <mxGeometry relative="1" as="geometry">
            <mxPoint x="440.0344827586207" y="210" as="targetPoint" />
          </mxGeometry>
        </mxCell>
        <mxCell id="NgUzxSAu7S5avkzwtn3j-5" value="find the array&#39;s length" style="rounded=0;whiteSpace=wrap;html=1;" vertex="1" parent="1">
          <mxGeometry x="380" y="130" width="120" height="60" as="geometry" />
        </mxCell>
        <mxCell id="NgUzxSAu7S5avkzwtn3j-15" style="edgeStyle=orthogonalEdgeStyle;rounded=0;orthogonalLoop=1;jettySize=auto;html=1;" edge="1" parent="1" source="NgUzxSAu7S5avkzwtn3j-13">
          <mxGeometry relative="1" as="geometry">
            <mxPoint x="440" y="280" as="targetPoint" />
          </mxGeometry>
        </mxCell>
        <mxCell id="NgUzxSAu7S5avkzwtn3j-13" value="fill the array&amp;nbsp;" style="shape=hexagon;perimeter=hexagonPerimeter2;whiteSpace=wrap;html=1;fixedSize=1;" vertex="1" parent="1">
          <mxGeometry x="305" y="210" width="270" height="50" as="geometry" />
        </mxCell>
        <mxCell id="NgUzxSAu7S5avkzwtn3j-18" value="" style="edgeStyle=orthogonalEdgeStyle;rounded=0;orthogonalLoop=1;jettySize=auto;html=1;" edge="1" parent="1" source="NgUzxSAu7S5avkzwtn3j-16" target="NgUzxSAu7S5avkzwtn3j-17">
          <mxGeometry relative="1" as="geometry" />
        </mxCell>
        <mxCell id="NgUzxSAu7S5avkzwtn3j-16" value="enter symbols into console&amp;nbsp;" style="rounded=0;whiteSpace=wrap;html=1;" vertex="1" parent="1">
          <mxGeometry x="380" y="280" width="120" height="60" as="geometry" />
        </mxCell>
        <mxCell id="NgUzxSAu7S5avkzwtn3j-17" value="check that symbols null" style="rhombus;whiteSpace=wrap;html=1;" vertex="1" parent="1">
          <mxGeometry x="350" y="360" width="180" height="80" as="geometry" />
        </mxCell>
        <mxCell id="NgUzxSAu7S5avkzwtn3j-19" value="" style="endArrow=classic;html=1;rounded=0;exitX=0;exitY=0.5;exitDx=0;exitDy=0;entryX=0;entryY=0.5;entryDx=0;entryDy=0;" edge="1" parent="1" source="NgUzxSAu7S5avkzwtn3j-17" target="NgUzxSAu7S5avkzwtn3j-16">
          <mxGeometry width="50" height="50" relative="1" as="geometry">
            <mxPoint x="390" y="380" as="sourcePoint" />
            <mxPoint x="440" y="330" as="targetPoint" />
          </mxGeometry>
        </mxCell>
        <mxCell id="NgUzxSAu7S5avkzwtn3j-20" value="" style="endArrow=classic;html=1;rounded=0;exitX=1;exitY=0.5;exitDx=0;exitDy=0;entryX=1;entryY=0.5;entryDx=0;entryDy=0;" edge="1" parent="1" source="NgUzxSAu7S5avkzwtn3j-17" target="NgUzxSAu7S5avkzwtn3j-13">
          <mxGeometry width="50" height="50" relative="1" as="geometry">
            <mxPoint x="390" y="380" as="sourcePoint" />
            <mxPoint x="440" y="330" as="targetPoint" />
          </mxGeometry>
        </mxCell>
        <mxCell id="NgUzxSAu7S5avkzwtn3j-21" value="" style="endArrow=classic;html=1;rounded=0;exitX=0;exitY=0.5;exitDx=0;exitDy=0;" edge="1" parent="1" source="NgUzxSAu7S5avkzwtn3j-13">
          <mxGeometry width="50" height="50" relative="1" as="geometry">
            <mxPoint x="390" y="380" as="sourcePoint" />
            <mxPoint x="440" y="510" as="targetPoint" />
            <Array as="points">
              <mxPoint x="270" y="450" />
              <mxPoint x="440" y="460" />
            </Array>
          </mxGeometry>
        </mxCell>
        <mxCell id="NgUzxSAu7S5avkzwtn3j-24" style="edgeStyle=orthogonalEdgeStyle;rounded=0;orthogonalLoop=1;jettySize=auto;html=1;exitX=0.496;exitY=0.838;exitDx=0;exitDy=0;exitPerimeter=0;" edge="1" parent="1" source="NgUzxSAu7S5avkzwtn3j-22">
          <mxGeometry relative="1" as="geometry">
            <mxPoint x="440" y="610" as="targetPoint" />
          </mxGeometry>
        </mxCell>
        <mxCell id="NgUzxSAu7S5avkzwtn3j-22" value="output the array to the console" style="shape=document;whiteSpace=wrap;html=1;boundedLbl=1;" vertex="1" parent="1">
          <mxGeometry x="380" y="510" width="120" height="70" as="geometry" />
        </mxCell>
        <mxCell id="NgUzxSAu7S5avkzwtn3j-25" value="find the length of the new array that goes by the tasks requirments" style="rounded=0;whiteSpace=wrap;html=1;" vertex="1" parent="1">
          <mxGeometry x="350" y="610" width="180" height="60" as="geometry" />
        </mxCell>
        <mxCell id="NgUzxSAu7S5avkzwtn3j-26" value="" style="endArrow=classic;html=1;rounded=0;exitX=0.5;exitY=1;exitDx=0;exitDy=0;" edge="1" parent="1" source="NgUzxSAu7S5avkzwtn3j-25" target="NgUzxSAu7S5avkzwtn3j-27">
          <mxGeometry width="50" height="50" relative="1" as="geometry">
            <mxPoint x="400" y="670" as="sourcePoint" />
            <mxPoint x="440" y="710" as="targetPoint" />
          </mxGeometry>
        </mxCell>
        <mxCell id="NgUzxSAu7S5avkzwtn3j-31" style="edgeStyle=orthogonalEdgeStyle;rounded=0;orthogonalLoop=1;jettySize=auto;html=1;exitX=0.5;exitY=1;exitDx=0;exitDy=0;" edge="1" parent="1" source="NgUzxSAu7S5avkzwtn3j-27">
          <mxGeometry relative="1" as="geometry">
            <mxPoint x="440" y="790" as="targetPoint" />
          </mxGeometry>
        </mxCell>
        <mxCell id="NgUzxSAu7S5avkzwtn3j-27" value="&lt;span style=&quot;text-align: left;&quot;&gt;enumeration of elements of the first array to&amp;nbsp;&lt;/span&gt;&lt;span style=&quot;text-align: left;&quot;&gt;create a new array&lt;/span&gt;&lt;span style=&quot;text-align: left;&quot;&gt;&lt;br&gt;&lt;/span&gt;" style="shape=hexagon;perimeter=hexagonPerimeter2;whiteSpace=wrap;html=1;fixedSize=1;" vertex="1" parent="1">
          <mxGeometry x="350" y="690" width="180" height="70" as="geometry" />
        </mxCell>
        <mxCell id="NgUzxSAu7S5avkzwtn3j-34" style="edgeStyle=orthogonalEdgeStyle;rounded=0;orthogonalLoop=1;jettySize=auto;html=1;" edge="1" parent="1" source="NgUzxSAu7S5avkzwtn3j-32">
          <mxGeometry relative="1" as="geometry">
            <mxPoint x="340" y="830" as="targetPoint" />
          </mxGeometry>
        </mxCell>
        <mxCell id="NgUzxSAu7S5avkzwtn3j-36" style="edgeStyle=orthogonalEdgeStyle;rounded=0;orthogonalLoop=1;jettySize=auto;html=1;" edge="1" parent="1" source="NgUzxSAu7S5avkzwtn3j-32">
          <mxGeometry relative="1" as="geometry">
            <mxPoint x="440" y="900" as="targetPoint" />
          </mxGeometry>
        </mxCell>
        <mxCell id="NgUzxSAu7S5avkzwtn3j-43" style="edgeStyle=orthogonalEdgeStyle;rounded=0;orthogonalLoop=1;jettySize=auto;html=1;exitX=1;exitY=0.5;exitDx=0;exitDy=0;" edge="1" parent="1" source="NgUzxSAu7S5avkzwtn3j-32">
          <mxGeometry relative="1" as="geometry">
            <mxPoint x="560" y="830" as="targetPoint" />
          </mxGeometry>
        </mxCell>
        <mxCell id="NgUzxSAu7S5avkzwtn3j-32" value="the length is &amp;lt; 4?" style="rhombus;whiteSpace=wrap;html=1;" vertex="1" parent="1">
          <mxGeometry x="360" y="790" width="160" height="80" as="geometry" />
        </mxCell>
        <mxCell id="NgUzxSAu7S5avkzwtn3j-39" style="edgeStyle=orthogonalEdgeStyle;rounded=0;orthogonalLoop=1;jettySize=auto;html=1;entryX=0;entryY=0.25;entryDx=0;entryDy=0;" edge="1" parent="1" source="NgUzxSAu7S5avkzwtn3j-37" target="NgUzxSAu7S5avkzwtn3j-27">
          <mxGeometry relative="1" as="geometry">
            <mxPoint x="340" y="690" as="targetPoint" />
            <Array as="points">
              <mxPoint x="340" y="930" />
              <mxPoint x="340" y="720" />
              <mxPoint x="359" y="720" />
            </Array>
          </mxGeometry>
        </mxCell>
        <mxCell id="NgUzxSAu7S5avkzwtn3j-37" value="put the result into a new array&amp;nbsp;" style="rounded=0;whiteSpace=wrap;html=1;" vertex="1" parent="1">
          <mxGeometry x="380" y="900" width="120" height="60" as="geometry" />
        </mxCell>
        <mxCell id="NgUzxSAu7S5avkzwtn3j-44" value="put a new array into console" style="shape=document;whiteSpace=wrap;html=1;boundedLbl=1;" vertex="1" parent="1">
          <mxGeometry x="560" y="790" width="120" height="80" as="geometry" />
        </mxCell>
        <mxCell id="NgUzxSAu7S5avkzwtn3j-45" value="" style="endArrow=classic;html=1;rounded=0;exitX=0.503;exitY=0.838;exitDx=0;exitDy=0;exitPerimeter=0;" edge="1" parent="1" source="NgUzxSAu7S5avkzwtn3j-44">
          <mxGeometry width="50" height="50" relative="1" as="geometry">
            <mxPoint x="540" y="920" as="sourcePoint" />
            <mxPoint x="620" y="920" as="targetPoint" />
          </mxGeometry>
        </mxCell>
        <mxCell id="NgUzxSAu7S5avkzwtn3j-46" value="end" style="ellipse;whiteSpace=wrap;html=1;" vertex="1" parent="1">
          <mxGeometry x="580" y="920" width="80" height="50" as="geometry" />
        </mxCell>
        <mxCell id="NgUzxSAu7S5avkzwtn3j-47" value="no" style="text;html=1;align=center;verticalAlign=middle;resizable=0;points=[];autosize=1;strokeColor=none;fillColor=none;" vertex="1" parent="1">
          <mxGeometry x="340" y="795" width="40" height="30" as="geometry" />
        </mxCell>
        <mxCell id="NgUzxSAu7S5avkzwtn3j-48" value="yaas" style="text;html=1;align=center;verticalAlign=middle;resizable=0;points=[];autosize=1;strokeColor=none;fillColor=none;" vertex="1" parent="1">
          <mxGeometry x="335" y="895" width="50" height="30" as="geometry" />
        </mxCell>
        <mxCell id="NgUzxSAu7S5avkzwtn3j-49" value="null/empty" style="text;html=1;align=center;verticalAlign=middle;resizable=0;points=[];autosize=1;strokeColor=none;fillColor=none;" vertex="1" parent="1">
          <mxGeometry x="292.5" y="330" width="80" height="30" as="geometry" />
        </mxCell>
        <mxCell id="NgUzxSAu7S5avkzwtn3j-52" value="symbols are correct" style="text;html=1;align=center;verticalAlign=middle;resizable=0;points=[];autosize=1;strokeColor=none;fillColor=none;" vertex="1" parent="1">
          <mxGeometry x="540" y="330" width="130" height="30" as="geometry" />
        </mxCell>
      </root>
    </mxGraphModel>
  </diagram>
</mxfile>
